<?xml version="1.0" encoding="UTF-8"?>
<svg id="Layer_1" xmlns="http://www.w3.org/2000/svg" version="1.1" viewBox="0 0 139.9 158.6">
  <!-- Generator: Adobe Illustrator 29.0.0, SVG Export Plug-In . SVG Version: 2.1.0 Build 186)  -->
  <defs>
    <style>
      .st0 {
        fill: #fff;
        stroke: #000;
        stroke-miterlimit: 10;
        stroke-width: .5px;
      }
    </style>
  </defs>
  <path class="st0" d="M93.4,155h-21.8c0,2.2-1.7,2.3-1.7,2.3,0,0-1.7,0-1.7-2.3h-21.8s-.7-5.8,3.7-9.6c4.3-3.8,13-11.3,13-11.3l-1-23.9H17.3l.6-10.3,2.2-5.3,39.1-36s-.9-4.2-.3-7c.4-1.6,1.6-2.6,1.6-2.6h1.3v-2.1h-.4v-2.7h1.5v2.6h-.4v2.2s.2-1.6,1.1-1.9l1.8-26.5s1.6-19.3,4.5-19.3,4.5,19.3,4.5,19.3l.2,2.9,6.8-10.4v-5h-.4v-1h.2v-1.7c0-.3.3-.6.6-.6s.6.3.6.6v1.7h.3v1h-.4v5.6l-6.3,9.8h.9v20.6c0,0,1.4,0,1.4,0v2.7h-.4v2.1h1.3s1.1,1,1.6,2.6c.6,2.8-.3,7-.3,7l39.1,36,2.2,5.3.6,10.3h-44.9s-1,23.9-1,23.9c0,0,8.7,7.6,13,11.3,4.3,3.8,3.7,9.6,3.7,9.6Z"/>
</svg>